<svg width="29" height="29" viewBox="0 0 29 29" fill="none" xmlns="http://www.w3.org/2000/svg">
<rect x="0.0258789" y="28.0258" width="28" height="28" rx="14" transform="rotate(-90.0529 0.0258789 28.0258)" fill="#007AFF"/>
<path d="M21.013 14.0102C21.0125 13.4457 20.6373 13.057 20.0788 13.0575L11.3701 13.0656L9.77546 13.1357L11.7433 11.3259L13.3879 9.60024C13.5495 9.42463 13.6595 9.19567 13.6592 8.92103C13.6588 8.40228 13.2909 8.01355 12.7765 8.01403C12.534 8.01425 12.3063 8.11364 12.1154 8.31216L7.29898 13.3134C7.11542 13.4967 7.01278 13.7638 7.01302 14.0232C7.01326 14.2825 7.11639 14.5418 7.30028 14.7247L12.1259 19.7171C12.3171 19.9153 12.5451 20.0142 12.7876 20.014C13.302 20.0135 13.6691 19.6241 13.6686 19.1054C13.6684 18.8308 13.5579 18.602 13.3961 18.4267L11.7483 16.7117L9.77709 14.9055L11.3719 14.9651L20.0806 14.9571C20.6391 14.9566 21.0135 14.5748 21.013 14.0102Z" fill="white"/>
</svg>
