<svg width="29" height="29" viewBox="0 0 29 29" fill="none" xmlns="http://www.w3.org/2000/svg">
<rect x="28.4861" y="0.490417" width="28" height="28" rx="14" transform="rotate(91.0036 28.4861 0.490417)" fill="#007AFF"/>
<path d="M7.24421 14.1166C7.23432 14.6811 7.60225 15.0766 8.1607 15.0864L16.868 15.239L18.4637 15.1982L16.4628 16.9715L14.7867 18.6665C14.6219 18.8391 14.5077 19.066 14.5029 19.3406C14.4938 19.8592 14.8544 20.2547 15.3688 20.2637C15.6112 20.2679 15.8408 20.1728 16.0353 19.9778L20.9431 15.0662C21.13 14.8863 21.2375 14.6212 21.2421 14.3618C21.2466 14.1025 21.1483 13.8414 20.9678 13.6551L16.235 8.57459C16.0475 8.37293 15.8214 8.26978 15.5789 8.26553C15.0646 8.25652 14.6904 8.63909 14.6813 9.15777C14.6765 9.43236 14.7827 9.66312 14.9413 9.84138L16.5571 11.5864L18.4947 13.4286L16.9013 13.3397L8.19397 13.1872C7.63552 13.1774 7.2541 13.5522 7.24421 14.1166Z" fill="white"/>
</svg>
